<?xml version="1.0" encoding="utf-8"?>
<!-- Generator: Adobe Illustrator 21.0.2, SVG Export Plug-In . SVG Version: 6.00 Build 0)  -->
<svg version="1.1" id="Layer_1" xmlns="http://www.w3.org/2000/svg" xmlns:xlink="http://www.w3.org/1999/xlink" x="0px" y="0px"
	 viewBox="0 0 457.3 114" style="enable-background:new 0 0 457.3 114;" xml:space="preserve">
<style type="text/css">
	.st0{fill:#FFFFFF;}
</style>
<g>
	<g>
		<g>
			<path class="st0" d="M389.6,86.2c-6.9,0-7.8-6.5-7.8-6.5l-11.9,6.6c0,0-0.7,0.1-6.3,0.1c-20.6,0-23.3-12-23.3-29.2
				c0-16.6,3-30.1,22-30.1c5.2,0,7.3,0.7,11,1.2l8.1,5.8V3.6h10.8v72.7l2.4,1.6v8.2h-5V86.2z M381.4,37.3c-1.4-0.1-9-0.8-15.3-0.8
				c-12.3,0-14.8,5.5-14.8,21.2c0,17.2,2.7,19.8,15,19.8c7.3,0,15-1.4,15-1.4L381.4,37.3L381.4,37.3z"/>
			<polygon class="st0" points="189,85.6 189,36 186.5,32.7 186.5,26.8 200,26.8 200,85.6 			"/>
			<path class="st0" d="M305.9,77.6c11.1,0,16.9-2.8,16.9-2.8l2.8,8.1c0,0-6.2,3.5-18.8,3.5c-18.6,0-29.8-3.5-29.8-29.8
				c0-7.8,1.1-15.2,2.9-19.6c3.3-7.8,12.4-10.2,25.4-10.2c10.1,0,17.4,1.1,21.2,5.9c3,4,4.2,7.7,4.2,17.4c0,2.2-0.1,4.4-0.2,7.5
				l-34.8,4.2l-7.4-5.1c0,0,0.1,13.3,3.2,16.5C294.6,76.3,298.4,77.6,305.9,77.6 M306.5,35.3c-17.6,0-17.5,3.6-18.2,20l32.3-5.6
				C320.6,38.2,319.7,35.3,306.5,35.3"/>
			<path class="st0" d="M242.2,77.6c11.1,0,16.9-2.8,16.9-2.8l2.8,8.1c0,0-6.2,3.5-18.8,3.5c-18.6,0-29.8-3.5-29.8-29.8
				c0-7.8,1.1-15.2,2.9-19.6c3.3-7.8,12.4-10.2,25.4-10.2c10.1,0,17.4,1.1,21.2,5.9c3,4,4.2,7.7,4.2,17.4c0,2.2-0.1,4.4-0.2,7.5
				L232,61.8l-7.4-5.1c0,0,0.1,13.3,3.2,16.5C230.9,76.3,234.6,77.6,242.2,77.6 M242.8,35.3c-17.6,0-17.5,3.6-18.2,20l32.3-5.6
				C256.9,38.2,255.9,35.3,242.8,35.3"/>
			<path class="st0" d="M171.9,76.2V40.4c0,0,0.4-11.1-6.9-12.6c-8.5-1.8-22.7-0.6-35.8,2.5v8c0,0,15.4-3.1,25.8-2.4
				c5.3,0.4,5.9,4,5.9,5.7V51l-5.4-1.9c0,0-13.9,2.1-17.2,2.9c-6.1,1.5-13.1,3.1-13.1,13.9v5.8c0,6.2,2.4,13.7,11.6,14.7
				c1.6,0.2,8,0.5,11.7-0.7c4.6-1.9,12.8-5.6,12.8-5.6c0.3,2.5,3.4,6.2,10,6.2h3.2V78L171.9,76.2z M160.9,74.5
				c-7.5,3-11.3,3.2-15,3.2c-8.5,0-10.3-1.4-10.3-7.6c0-7.6,0.3-8,4.6-10c1.9-0.9,20.8-6.5,20.8-6.5L160.9,74.5z"/>
			<path class="st0" d="M451.6,76.2V40.4c0,0,0.4-11.1-6.9-12.6c-8.5-1.8-22.7-0.6-35.8,2.5v8c0,0,15.4-3.1,25.8-2.4
				c5.3,0.4,5.9,4,5.9,5.7V51l-5.4-1.9c0,0-13.9,2.1-17.2,2.9c-6,1.4-13,3-13,13.7v5.8c0,6.2,2.4,13.7,11.6,14.7
				c1.6,0.2,8,0.5,11.7-0.7c4.6-1.9,12.8-5.6,12.8-5.6c0.3,2.5,3.4,6.2,10,6.2h3.2v-8.3L451.6,76.2z M440.7,74.5
				c-7.5,3-11.3,3.2-15,3.2c-8.5,0-10.3-1.4-10.3-7.6c0-7.6,0.3-8,4.6-10c1.9-0.9,20.8-6.5,20.8-6.5L440.7,74.5z"/>
			<polygon class="st0" points="85.5,59.8 100.7,51.5 100.7,28.4 52.4,0.7 52.4,0.5 37.4,8.9 85.5,37 			"/>
			<polygon class="st0" points="32.5,83.8 32.5,101 51.6,112.1 100.7,84.6 100.7,67.5 51.6,94.9 			"/>
			<polygon class="st0" points="3.3,28 3.3,84.1 18.5,92.9 18.5,36.7 38.2,25.6 23.2,16.8 			"/>
			<polygon class="st0" points="71.5,67.7 71.5,45.1 52.2,33.8 32.5,44.9 32.5,67.5 51.8,78.7 			"/>
		</g>
	</g>
</g>
</svg>
