<?xml version="1.0" encoding="utf-8"?>
<!-- Generator: Adobe Illustrator 19.0.0, SVG Export Plug-In . SVG Version: 6.00 Build 0)  -->
<svg version="1.1" id="Layer_1" xmlns="http://www.w3.org/2000/svg" xmlns:xlink="http://www.w3.org/1999/xlink" x="0px" y="0px"
	 viewBox="0 0 64.8 27.5" style="enable-background:new 0 0 64.8 27.5;" xml:space="preserve">
<style type="text/css">
	.st0{fill:#FFFFFF;}
	.st1{fill:none;stroke:#FFFFFF;stroke-width:1.5;stroke-miterlimit:10;}
</style>
<polygon id="XMLID_41_" class="st0" points="83,153.4 81.8,154.4 85.6,159.2 73.1,159.2 73.1,160.8 85.6,160.8 81.8,165.6 83,166.6 
	88.4,160 "/>
<rect id="XMLID_40_" x="95.6" y="149.2" class="st1" width="35.9" height="20"/>
<polyline id="XMLID_42_" class="st1" points="95.6,149.3 113.6,161.1 131.5,149.3 "/>
<g id="XMLID_46_">
	<polygon id="XMLID_63_" class="st0" points="13.2,7.5 12,8.6 15.8,13.3 3.3,13.3 3.3,15 15.8,15 12,19.7 13.2,20.8 18.6,14.2 	"/>
</g>
<path id="XMLID_53_" class="st0" d="M24.4,3.1V25h37.4V3.1H24.4z M59,4.8L43.4,15L27.8,4.8H59z M26.2,23.4V6.1l17.3,11.3L60.2,6.1
	v17.3H26.2z"/>
</svg>
